<svg id="Capa_1" data-name="Capa 1" xmlns="http://www.w3.org/2000/svg" viewBox="0 0 186.33 38.67"><defs><style>.cls-1{fill:#4039c4;}.cls-2{fill:#fff;}.cls-3{fill:#3f38c4;}</style></defs><title>Mesa de trabajo 1</title><rect class="cls-1" x="58.34" y="17.65" width="22.82" height="15.7" rx="2.57"/><path class="cls-1" d="M79.34,33.7H60.16A2.17,2.17,0,0,1,58,31.53V19.46a2.17,2.17,0,0,1,2.17-2.17H79.34a2.17,2.17,0,0,1,2.17,2.17V31.53A2.17,2.17,0,0,1,79.34,33.7ZM60.16,18a1.47,1.47,0,0,0-1.47,1.46V31.53A1.47,1.47,0,0,0,60.16,33H79.34a1.47,1.47,0,0,0,1.47-1.47V19.46A1.47,1.47,0,0,0,79.34,18Z"/><path class="cls-1" d="M77.73,20.64H74.2V13.42a4.45,4.45,0,1,0-8.9,0v7.22H61.77V13.42a8,8,0,1,1,16,0Z"/><path class="cls-2" d="M69.75,31.83a4.8,4.8,0,0,1-2-.43l-11.15-5,.87-1.93,11.14,5a2.75,2.75,0,0,0,2.28,0l11.14-5,.87,1.93-11.15,5A5,5,0,0,1,69.75,31.83Z"/><path class="cls-2" d="M71.3,24.15a1.55,1.55,0,0,0-1.83-1.53,1.58,1.58,0,0,0-1.25,1.23A1.55,1.55,0,0,0,69,25.47v2.3h1.53V25.5A1.54,1.54,0,0,0,71.3,24.15Z"/><path class="cls-3" d="M19.4,24.66A4.17,4.17,0,0,1,19,26.53a5,5,0,0,1-1.18,1.56A5.71,5.71,0,0,1,16,29.16a6.37,6.37,0,0,1-2.31.41,15.44,15.44,0,0,1-2-.13A9,9,0,0,1,9.93,29a8.24,8.24,0,0,1-1.53-.73,12.67,12.67,0,0,1-1.51-1.08l2.4-2.41A6.8,6.8,0,0,0,11.34,26a6.35,6.35,0,0,0,2.18.36,2.7,2.7,0,0,0,.9-.15,2.46,2.46,0,0,0,.74-.38,1.89,1.89,0,0,0,.5-.56,1.49,1.49,0,0,0,.19-.72,1.58,1.58,0,0,0-.16-.74,1.83,1.83,0,0,0-.54-.64,5.76,5.76,0,0,0-1.09-.62c-.47-.21-1.06-.44-1.79-.71a15.92,15.92,0,0,1-1.84-.79A6.7,6.7,0,0,1,8.88,20a4.77,4.77,0,0,1-1.06-1.48,5,5,0,0,1,0-4,4.84,4.84,0,0,1,1.22-1.61,5.85,5.85,0,0,1,1.81-1,6.48,6.48,0,0,1,2.23-.37A9.49,9.49,0,0,1,16.5,12a7.3,7.3,0,0,1,2.44,1.53l-2.35,2.37a5,5,0,0,0-1.46-1,5,5,0,0,0-1.9-.34,2.73,2.73,0,0,0-.92.16,2.22,2.22,0,0,0-.73.4,1.84,1.84,0,0,0-.49.59,1.38,1.38,0,0,0-.19.71,1.72,1.72,0,0,0,.17.75,2.19,2.19,0,0,0,.59.65,6.31,6.31,0,0,0,1.1.63c.46.22,1,.44,1.71.69a13.7,13.7,0,0,1,2.25,1,6.61,6.61,0,0,1,1.52,1.2,4.27,4.27,0,0,1,.88,1.47A5.87,5.87,0,0,1,19.4,24.66Z"/><path class="cls-3" d="M31.58,29.24H28.44v-.67a5.38,5.38,0,0,1-1.75.78,8.05,8.05,0,0,1-1.91.22,4.76,4.76,0,0,1-1.65-.27,3.83,3.83,0,0,1-1.29-.79A3.56,3.56,0,0,1,21,27.3a3.86,3.86,0,0,1-.29-1.55,3.52,3.52,0,0,1,.47-1.86,4,4,0,0,1,1.27-1.33,6,6,0,0,1,1.88-.79,9.61,9.61,0,0,1,2.33-.27h1.8a2.29,2.29,0,0,0-.71-1.76,3,3,0,0,0-2.07-.65,4.2,4.2,0,0,0-1.36.24,4.09,4.09,0,0,0-1.39.87l-1.85-1.88a7.13,7.13,0,0,1,2.32-1.48,7.25,7.25,0,0,1,2.71-.52,6.29,6.29,0,0,1,2.33.41,4.8,4.8,0,0,1,2.81,2.92,8.76,8.76,0,0,1,.33,2.62ZM28.44,26.1V23.77H27a8.09,8.09,0,0,0-1.23.09,3.46,3.46,0,0,0-1,.29,1.82,1.82,0,0,0-.67.54,1.22,1.22,0,0,0-.26.78,1.33,1.33,0,0,0,.52,1.07,2.06,2.06,0,0,0,1.32.41,4.42,4.42,0,0,0,1.38-.22A6,6,0,0,0,28.44,26.1Z"/><path class="cls-3" d="M41,14a4.27,4.27,0,0,0-.81-.23,4.47,4.47,0,0,0-.76-.05,1.7,1.7,0,0,0-1.3.41,2.28,2.28,0,0,0-.38,1.5v1h2v2.74h-2v9.83H34.65V19.41H33.13V16.67h1.52v-1a6.2,6.2,0,0,1,.89-3.62,3.57,3.57,0,0,1,3.12-1.24,9.07,9.07,0,0,1,2.38.3Z"/><path class="cls-3" d="M54.57,22.92c0,.2,0,.42,0,.63s0,.45-.08.68H44.39a4.42,4.42,0,0,0,.49,1,3.51,3.51,0,0,0,.78.85,3.68,3.68,0,0,0,1,.57,3.74,3.74,0,0,0,1.28.21,5.08,5.08,0,0,0,1.7-.3,4.13,4.13,0,0,0,1.42-.79l2,2a8.73,8.73,0,0,1-2.56,1.38,8.59,8.59,0,0,1-2.65.41,6.83,6.83,0,0,1-4.78-1.94,6.63,6.63,0,0,1-1.43-2.1,6.55,6.55,0,0,1,1.44-7.27,6.91,6.91,0,0,1,2.13-1.42,6.59,6.59,0,0,1,2.62-.52,6.76,6.76,0,0,1,2.55.49,7.12,7.12,0,0,1,2.16,1.36A6.62,6.62,0,0,1,54,20.25,6.5,6.5,0,0,1,54.57,22.92ZM51.28,21.7A3.82,3.82,0,0,0,50,19.77,3.46,3.46,0,0,0,47.82,19a3.41,3.41,0,0,0-2.12.73,3.87,3.87,0,0,0-1.31,1.93Z"/><path class="cls-3" d="M102.54,29.24H99.23V17.6l-5.5,9.27-5.27-9.35V29.24H85.15V11.81H89l4.84,8.65,5-8.65h3.69Z"/><path class="cls-3" d="M118.38,22.92c0,.2,0,.42,0,.63s0,.45-.08.68H108.2a4.42,4.42,0,0,0,.49,1,3.32,3.32,0,0,0,.78.85,3.68,3.68,0,0,0,1,.57,3.74,3.74,0,0,0,1.28.21,5.12,5.12,0,0,0,1.7-.3,4.08,4.08,0,0,0,1.41-.79l2,2a8.73,8.73,0,0,1-2.56,1.38,8.59,8.59,0,0,1-2.65.41,6.68,6.68,0,0,1-6.21-4,6.55,6.55,0,0,1,1.44-7.27A6.91,6.91,0,0,1,109,16.84a6.59,6.59,0,0,1,2.62-.52,6.76,6.76,0,0,1,2.55.49,7,7,0,0,1,2.15,1.36,6.31,6.31,0,0,1,2,4.75Zm-3.29-1.22a3.82,3.82,0,0,0-1.32-1.93,3.46,3.46,0,0,0-2.14-.73,3.41,3.41,0,0,0-2.12.73,3.87,3.87,0,0,0-1.31,1.93Z"/><path class="cls-3" d="M129.58,25.71a3.2,3.2,0,0,1-.43,1.67A4.14,4.14,0,0,1,128,28.6a5.53,5.53,0,0,1-1.57.74,6.19,6.19,0,0,1-1.73.25,6.6,6.6,0,0,1-2.65-.53,5.51,5.51,0,0,1-2.13-1.72l1.89-1.91a4.33,4.33,0,0,0,1.31,1.12,3.29,3.29,0,0,0,1.59.4,2.49,2.49,0,0,0,1.23-.27.87.87,0,0,0,.49-.82,1.12,1.12,0,0,0-.69-.95,11,11,0,0,0-2-.75,8.92,8.92,0,0,1-1.44-.55,5.44,5.44,0,0,1-1.25-.83,4.08,4.08,0,0,1-.87-1.12,3.47,3.47,0,0,1,.1-3.11,4.08,4.08,0,0,1,1.12-1.22,5,5,0,0,1,1.56-.75,6.27,6.27,0,0,1,1.77-.26,5.88,5.88,0,0,1,4.72,2.18l-1.88,1.89a4.27,4.27,0,0,0-1.24-1.06,3,3,0,0,0-1.53-.4,2.61,2.61,0,0,0-.6.08,2.25,2.25,0,0,0-.58.22,1.18,1.18,0,0,0-.45.37.79.79,0,0,0-.18.51c0,.33.23.62.67.87a9.18,9.18,0,0,0,1.91.74,9.65,9.65,0,0,1,1.52.61,6.57,6.57,0,0,1,1.27.86,4,4,0,0,1,.86,1.11A3.11,3.11,0,0,1,129.58,25.71Z"/><path class="cls-3" d="M140.76,25.71a3.11,3.11,0,0,1-.44,1.67,4.11,4.11,0,0,1-1.13,1.22,5.53,5.53,0,0,1-1.57.74,6.19,6.19,0,0,1-1.73.25,6.6,6.6,0,0,1-2.65-.53,5.51,5.51,0,0,1-2.13-1.72L133,25.43a4.33,4.33,0,0,0,1.31,1.12,3.26,3.26,0,0,0,1.59.4,2.49,2.49,0,0,0,1.23-.27.87.87,0,0,0,.49-.82,1.12,1.12,0,0,0-.69-.95,10.81,10.81,0,0,0-2-.75,9.17,9.17,0,0,1-1.43-.55,5.44,5.44,0,0,1-1.25-.83,4.08,4.08,0,0,1-.87-1.12,3.11,3.11,0,0,1-.32-1.46,3.27,3.27,0,0,1,.42-1.65,4.08,4.08,0,0,1,1.12-1.22,4.91,4.91,0,0,1,1.56-.75,6.27,6.27,0,0,1,1.77-.26,5.85,5.85,0,0,1,4.71,2.18l-1.87,1.89a4.27,4.27,0,0,0-1.24-1.06,3,3,0,0,0-1.53-.4,2.61,2.61,0,0,0-.6.08,2.47,2.47,0,0,0-.59.22,1.23,1.23,0,0,0-.44.37.79.79,0,0,0-.18.51c0,.33.23.62.67.87a9.18,9.18,0,0,0,1.91.74,9.65,9.65,0,0,1,1.52.61,6.2,6.2,0,0,1,1.26.86,4,4,0,0,1,.87,1.11A3.11,3.11,0,0,1,140.76,25.71Z"/><path class="cls-3" d="M152.92,29.24h-3.14v-.67a5.38,5.38,0,0,1-1.75.78,8.05,8.05,0,0,1-1.91.22,4.76,4.76,0,0,1-1.65-.27,3.83,3.83,0,0,1-1.29-.79,3.56,3.56,0,0,1-.84-1.21,3.86,3.86,0,0,1-.29-1.55,3.52,3.52,0,0,1,.47-1.86,4,4,0,0,1,1.27-1.33,6,6,0,0,1,1.89-.79A9.47,9.47,0,0,1,148,21.5h1.8a2.26,2.26,0,0,0-.71-1.76,3,3,0,0,0-2.07-.65,4.2,4.2,0,0,0-1.36.24,4.09,4.09,0,0,0-1.39.87l-1.85-1.88a7.13,7.13,0,0,1,2.32-1.48,7.25,7.25,0,0,1,2.71-.52,6.29,6.29,0,0,1,2.33.41,4.8,4.8,0,0,1,2.81,2.92,8.76,8.76,0,0,1,.33,2.62Zm-3.14-3.14V23.77h-1.44a8.09,8.09,0,0,0-1.23.09,3.46,3.46,0,0,0-1,.29,1.82,1.82,0,0,0-.67.54,1.22,1.22,0,0,0-.26.78,1.33,1.33,0,0,0,.52,1.07A2.06,2.06,0,0,0,147,27a4.42,4.42,0,0,0,1.38-.22A6,6,0,0,0,149.78,26.1Z"/><path class="cls-3" d="M166.91,19.13h-1.33a4.59,4.59,0,0,1,.19,3.74,4.72,4.72,0,0,1-.91,1.45,5.47,5.47,0,0,1-1.42,1.11,5.67,5.67,0,0,1-1.89.61,2.69,2.69,0,0,0-1.08.34q-.36.23-.36.45c0,.16.12.3.36.43a2.83,2.83,0,0,0,1.08.26,7.25,7.25,0,0,1,3.78,1.22,3.28,3.28,0,0,1,.93,4.23,3.86,3.86,0,0,1-1.18,1.24,6.09,6.09,0,0,1-1.86.81,10,10,0,0,1-2.43.28,10.36,10.36,0,0,1-2.47-.28,6.28,6.28,0,0,1-1.87-.8,3.61,3.61,0,0,1-1.2-1.23,3.19,3.19,0,0,1-.41-1.59,3.32,3.32,0,0,1,.74-2.19A4.6,4.6,0,0,1,158,27.89a1.51,1.51,0,0,1-.75-.53,1,1,0,0,1-.21-.69,1.14,1.14,0,0,1,.29-.67,1.83,1.83,0,0,1,.78-.49,5,5,0,0,1-1.09-.67,6,6,0,0,1-.93-1,4.35,4.35,0,0,1-.66-1.22,4.42,4.42,0,0,1,.2-3.36,5.08,5.08,0,0,1,1.17-1.55,5.49,5.49,0,0,1,1.72-1.05,5.8,5.8,0,0,1,2.07-.38,6.06,6.06,0,0,1,2,.32h4.31ZM163.53,31.4a1.15,1.15,0,0,0-.77-1.11,4.68,4.68,0,0,0-2-.35,4.61,4.61,0,0,0-2.05.37A1.18,1.18,0,0,0,158,31.4a1.19,1.19,0,0,0,.78,1.11,4.67,4.67,0,0,0,2,.37,4.62,4.62,0,0,0,2-.36A1.18,1.18,0,0,0,163.53,31.4ZM163,21.22a2.18,2.18,0,0,0-.19-.89,2.46,2.46,0,0,0-.49-.73,2.36,2.36,0,0,0-.74-.5,2.09,2.09,0,0,0-.89-.19,2,2,0,0,0-.89.19,2.39,2.39,0,0,0-.72.5,2.31,2.31,0,0,0-.5.73,2.18,2.18,0,0,0-.18.89,2.3,2.3,0,0,0,.68,1.65,2.58,2.58,0,0,0,.72.5,2.18,2.18,0,0,0,.89.18,2.25,2.25,0,0,0,.89-.18,2.54,2.54,0,0,0,.74-.5,2.51,2.51,0,0,0,.49-.74A2.35,2.35,0,0,0,163,21.22Z"/><path class="cls-3" d="M181.45,22.92a4.54,4.54,0,0,1,0,.63c0,.22,0,.45-.07.68H171.27a4.42,4.42,0,0,0,.49,1,3.47,3.47,0,0,0,.77.85,3.74,3.74,0,0,0,1,.57,3.68,3.68,0,0,0,1.27.21,5,5,0,0,0,1.7-.3A4.13,4.13,0,0,0,178,25.8l2,2a8.6,8.6,0,0,1-2.56,1.38,8.48,8.48,0,0,1-2.64.41A6.88,6.88,0,0,1,170,27.63a6.8,6.8,0,0,1-1.43-2.1,6.69,6.69,0,0,1,0-5.17,6.44,6.44,0,0,1,1.44-2.1,6.84,6.84,0,0,1,2.14-1.42,6.51,6.51,0,0,1,2.61-.52,6.69,6.69,0,0,1,2.55.49,6.89,6.89,0,0,1,2.16,1.36,6.4,6.4,0,0,1,2,4.75Zm-3.29-1.22a3.82,3.82,0,0,0-1.32-1.93,3.47,3.47,0,0,0-2.15-.73,3.38,3.38,0,0,0-2.11.73,3.8,3.8,0,0,0-1.31,1.93Z"/></svg>